# xmcd
#
# Track frame offsets:
#	150
#	4229
#	32281
#	49000
#	64034
#	76654
#	113335
#	143215
#	193230
#	218196
#	245502
#
# Disc length: 3856 seconds
#
# Revision: 1
# Processed by: cddbd v1.5.2PL0 Copyright (c) Steve Scherf et al.
# Submitted via: audiograbber 1.83.01
#
DISCID=890f0e0b
DTITLE=Grateful Dead - 78-05-16 Uptown Theatre, Chicago IL
DYEAR=1900
DGENRE=
TTITLE0=Crowd Noise
TTITLE1=Jack Straw
TTITLE2=Dire Wolf
TTITLE3=Mexicali Blues
TTITLE4=Mama Tried
TTITLE5=Peggy-O
TTITLE6=Cassidy
TTITLE7=Row Jimmy
TTITLE8=Passenger
TTITLE9=Brown Eyed Women
TTITLE10=The Music Never Stopped
EXTD=
EXTT0=
EXTT1=
EXTT2=
EXTT3=
EXTT4=
EXTT5=
EXTT6=
EXTT7=
EXTT8=
EXTT9=
EXTT10=
PLAYORDER=
